<?xml version="1.0" encoding="utf-8"?>
<!-- Generator: Adobe Illustrator 28.1.0, SVG Export Plug-In . SVG Version: 6.00 Build 0)  -->
<svg version="1.1" id="Layer_1" xmlns="http://www.w3.org/2000/svg" xmlns:xlink="http://www.w3.org/1999/xlink" x="0px" y="0px"
	 viewBox="0 0 445.2 110.1" style="enable-background:new 0 0 445.2 110.1;" xml:space="preserve">
<style type="text/css">
	.st0{fill:#751132;}
	.st1{fill-rule:evenodd;clip-rule:evenodd;fill:#751132;}
	.st2{fill-rule:evenodd;clip-rule:evenodd;fill:#009EBD;}
	.st3{fill-rule:evenodd;clip-rule:evenodd;fill:#DD003B;}
</style>
<g>
	<g>
		<path class="st0" d="M98.2,85.8c0-3.9,2-7,6-7c1,0,2.1,0.2,3,0.6v1.5c-0.9-0.5-1.9-0.7-2.9-0.7c-3,0-4.4,2.2-4.4,5.6
			c0,3.2,1.7,5.2,4.6,5.2c1,0,2-0.2,2.9-0.7v1.5c-1,0.4-2.1,0.6-3.2,0.6C100.3,92.4,98.2,89.7,98.2,85.8"/>
		<path class="st0" d="M116.9,92.4c-0.7,0-1.4-0.4-1.6-1.1c-0.7,0.7-1.7,1.1-2.7,1.1c-2,0-3.2-1.2-3.2-2.9c0-2.1,1.7-3.2,4.6-3.2
			c0.3,0,0.8,0,1.2,0v-1.2c0-1.6-0.7-2.2-2.3-2.2c-0.9,0-1.8,0.2-2.5,0.6v-1.4c0.9-0.4,1.8-0.6,2.8-0.6c2.3,0,3.6,1,3.6,3.2v5.3
			c0,0.7,0.3,0.9,0.9,0.9c0.1,0,0.3,0,0.4,0v1.2C117.6,92.3,117.3,92.4,116.9,92.4 M114.2,87.5c-2,0-3.2,0.6-3.2,1.9
			c0,1.1,0.7,1.7,1.9,1.7c0.8,0,1.5-0.3,2.1-0.8v-2.8C114.9,87.5,114.5,87.5,114.2,87.5"/>
		<path class="st0" d="M118.9,81.8h1.4l0.3-2.8h1.3v2.8h2.4v1.2h-2.4v6.2c0,1.3,0.4,1.8,1.5,1.8c0.4,0,0.9-0.1,1.3-0.3v1.3
			c-0.5,0.2-1.1,0.3-1.6,0.3c-1.8,0-2.7-0.8-2.7-2.9v-6.5h-1.4L118.9,81.8z"/>
		<path class="st0" d="M126.8,77.7h1.6v4.9c0.8-0.6,1.8-1,2.9-1c2.5,0,3.4,1.6,3.4,3.7v6.9H133v-6.6c0-1.6-0.5-2.6-2.3-2.6
			c-0.9,0-1.7,0.3-2.4,0.8v8.5h-1.6L126.8,77.7z"/>
		<path class="st0" d="M137,87c0-2.8,1.4-5.4,4.5-5.4s4.5,2.4,4.5,5.4c0,2.8-1.4,5.4-4.5,5.4S137,90,137,87 M144.4,87
			c0-1.9-0.5-4.1-2.9-4.1s-2.9,2.2-2.9,4.1s0.5,4.1,2.9,4.1S144.4,89,144.4,87"/>
		<rect x="148.6" y="77.7" class="st0" width="1.6" height="14.5"/>
		<path class="st0" d="M153.4,78.7c0-0.6,0.5-1.1,1.1-1.1s1.1,0.5,1.1,1.1c0,0.6-0.5,1.1-1.1,1.1C153.9,79.8,153.4,79.3,153.4,78.7
			 M153.7,81.8h1.6v10.4h-1.6V81.8z"/>
		<path class="st0" d="M157.9,87.2c0-3,1.5-5.6,4.6-5.6c0.9,0,1.8,0.1,2.5,0.5v1.3c-0.7-0.4-1.5-0.5-2.4-0.5c-2.3,0-3.2,1.6-3.2,4.3
			c0,2.6,1.2,3.9,3.4,3.9c0.8,0,1.7-0.2,2.4-0.6v1.3c-0.8,0.4-1.7,0.6-2.7,0.6C159.7,92.4,157.9,90.4,157.9,87.2"/>
		<path class="st0" d="M173.1,78.9h4c4.4,0,6.1,3.2,6.1,6.7c0,3.3-1.6,6.6-6.1,6.6h-3.9V78.9z M174.7,90.9h2c3.8,0,4.7-2.5,4.7-5.3
			c0-2.7-0.9-5.3-4.6-5.3h-2.1L174.7,90.9z"/>
		<path class="st0" d="M185.8,78.7c0-0.6,0.5-1.1,1.1-1.1s1.1,0.5,1.1,1.1c0,0.6-0.5,1.1-1.1,1.1C186.3,79.8,185.9,79.3,185.8,78.7
			 M186.1,81.8h1.6v10.4h-1.6L186.1,81.8z"/>
		<path class="st0" d="M190.4,91.8v-1.4c0.9,0.4,1.8,0.6,2.8,0.6c1.5,0,2.3-0.5,2.3-1.7c0-1.1-0.7-1.3-2.3-1.9
			c-1.6-0.6-2.7-1.3-2.7-3c0-2,1.4-2.9,3.5-2.9c0.9,0,1.7,0.1,2.5,0.5v1.4c-0.8-0.4-1.6-0.5-2.5-0.6c-1.3,0-2,0.5-2,1.4
			c0,0.9,0.6,1.3,1.9,1.7c1.5,0.5,3.2,1.1,3.2,3.2c0,1.9-1.5,3.1-3.6,3.1C192.4,92.4,191.4,92.2,190.4,91.8"/>
		<path class="st0" d="M198.4,81.8h1.4l0.3-2.8h1.3v2.8h2.4v1.2h-2.4v6.2c0,1.3,0.4,1.8,1.5,1.8c0.4,0,0.9-0.1,1.3-0.3v1.3
			c-0.5,0.2-1.1,0.3-1.6,0.3c-1.8,0-2.7-0.8-2.7-2.9v-6.5h-1.4L198.4,81.8z"/>
		<path class="st0" d="M206.2,81.8h1.6v1.1c0.6-0.8,1.6-1.3,2.6-1.3c0.3,0,0.6,0.1,0.9,0.1v1.5c-0.3-0.1-0.7-0.1-1.1-0.1
			c-0.9,0-1.8,0.3-2.4,1v8.1h-1.6L206.2,81.8z"/>
		<path class="st0" d="M213.3,78.7c0-0.6,0.5-1.1,1.1-1.1s1.1,0.5,1.1,1.1c0,0.6-0.5,1.1-1.1,1.1C213.8,79.8,213.3,79.3,213.3,78.7
			 M213.6,81.8h1.6v10.4h-1.6V81.8z"/>
		<path class="st0" d="M217.9,87.2c0-3,1.5-5.6,4.6-5.6c0.9,0,1.8,0.1,2.5,0.5v1.3c-0.7-0.4-1.5-0.5-2.4-0.5c-2.3,0-3.2,1.6-3.2,4.3
			c0,2.6,1.2,3.9,3.4,3.9c0.8,0,1.7-0.2,2.4-0.6v1.3c-0.8,0.4-1.7,0.6-2.7,0.6C219.7,92.4,217.9,90.4,217.9,87.2"/>
		<path class="st0" d="M226.4,81.8h1.4l0.3-2.8h1.3v2.8h2.4v1.2h-2.4v6.2c0,1.3,0.4,1.8,1.5,1.8c0.4,0,0.9-0.1,1.3-0.3v1.3
			c-0.5,0.2-1.1,0.3-1.6,0.3c-1.8,0-2.7-0.8-2.7-2.9v-6.5h-1.4L226.4,81.8z"/>
		<path class="st0" d="M238.9,91.7v-1.5c1,0.5,2.1,0.7,3.3,0.8c1.7,0,2.8-0.7,2.8-2.3c0-1.5-1-2-3.1-2.9c-1.4-0.6-2.8-1.4-2.8-3.6
			c0-2.2,1.7-3.4,4.1-3.4c1,0,2.1,0.2,3,0.6v1.4c-0.9-0.4-1.9-0.6-3-0.7c-1.6,0-2.5,0.7-2.5,2c0,1.3,0.9,1.7,2.5,2.4
			s3.5,1.6,3.5,4.1c0,2.2-1.7,3.7-4.3,3.7C241.3,92.4,240.1,92.2,238.9,91.7"/>
		<path class="st0" d="M248.7,87.2c0-3,1.5-5.6,4.6-5.6c0.9,0,1.8,0.1,2.5,0.5v1.3c-0.7-0.4-1.5-0.5-2.4-0.5c-2.3,0-3.2,1.6-3.2,4.3
			c0,2.6,1.2,3.9,3.4,3.9c0.8,0,1.7-0.2,2.4-0.6v1.3c-0.8,0.4-1.7,0.6-2.7,0.6C250.5,92.4,248.7,90.4,248.7,87.2"/>
		<path class="st0" d="M258.4,77.7h1.6v4.9c0.8-0.6,1.8-1,2.9-1c2.5,0,3.4,1.6,3.4,3.7v6.9h-1.6v-6.6c0-1.6-0.5-2.6-2.3-2.6
			c-0.9,0-1.7,0.3-2.4,0.8v8.5h-1.6L258.4,77.7z"/>
		<path class="st0" d="M268.7,87c0-2.8,1.4-5.4,4.5-5.4s4.5,2.4,4.5,5.4c0,2.8-1.4,5.4-4.5,5.4S268.7,90,268.7,87 M276.1,87
			c0-1.9-0.5-4.1-2.9-4.1s-2.9,2.2-2.9,4.1s0.5,4.1,2.9,4.1S276.1,89,276.1,87"/>
		<path class="st0" d="M279.5,87c0-2.8,1.4-5.4,4.5-5.4s4.5,2.4,4.5,5.4c0,2.8-1.4,5.4-4.5,5.4S279.5,90,279.5,87 M286.9,87
			c0-1.9-0.5-4.1-2.9-4.1s-2.9,2.2-2.9,4.1s0.5,4.1,2.9,4.1S286.9,89,286.9,87"/>
		<rect x="291" y="77.7" class="st0" width="1.6" height="14.5"/>
		<path class="st0" d="M301.3,78.9h4.1c2.7,0,4.1,1.3,4.1,3.4c0,1.4-0.9,2.5-2.2,2.9v0c1.6,0.2,2.7,1.6,2.6,3.2
			c0,2.2-1.6,3.8-4.3,3.8h-4.3L301.3,78.9z M303,84.6h2.4c1.7,0,2.5-0.8,2.5-2.2c0-1.2-0.8-2.1-2.5-2.1h-2.4L303,84.6z M303,90.9
			h2.4c1.8,0,2.7-0.8,2.7-2.4c0-1.6-0.8-2.5-2.7-2.5H303V90.9z"/>
		<path class="st0" d="M312,87c0-2.8,1.4-5.4,4.5-5.4s4.5,2.4,4.5,5.4c0,2.8-1.4,5.4-4.5,5.4S312,90,312,87 M319.5,87
			c0-1.9-0.5-4.1-2.9-4.1s-2.9,2.2-2.9,4.1s0.5,4.1,2.9,4.1S319.5,89,319.5,87"/>
		<path class="st0" d="M330.4,92.4c-0.7,0-1.4-0.4-1.6-1.1c-0.7,0.7-1.7,1.1-2.7,1.1c-2,0-3.2-1.2-3.2-2.9c0-2.1,1.7-3.2,4.6-3.2
			c0.3,0,0.8,0,1.2,0v-1.2c0-1.6-0.7-2.2-2.3-2.2c-0.9,0-1.8,0.2-2.5,0.6v-1.4c0.9-0.4,1.8-0.6,2.8-0.6c2.3,0,3.6,1,3.6,3.2v5.3
			c0,0.7,0.3,0.9,0.9,0.9c0.1,0,0.3,0,0.4,0v1.2C331.1,92.3,330.7,92.4,330.4,92.4 M327.7,87.5c-2,0-3.2,0.6-3.2,1.9
			c0,1.1,0.7,1.7,1.9,1.7c0.8,0,1.5-0.3,2.1-0.8v-2.8C328.4,87.5,327.9,87.5,327.7,87.5"/>
		<path class="st0" d="M333.5,81.8h1.6v1.1c0.6-0.8,1.6-1.3,2.6-1.3c0.3,0,0.6,0.1,0.9,0.1v1.5c-0.3-0.1-0.7-0.1-1.1-0.1
			c-0.9,0-1.8,0.3-2.4,1v8.1h-1.6L333.5,81.8z"/>
		<path class="st0" d="M339.6,87.1c0-3,1.8-5.4,4.8-5.4c0.7,0,1.4,0.1,2.1,0.4v-4.4h1.6v14.5h-1.6v-0.8c-0.7,0.7-1.6,1-2.5,1
			C341.1,92.4,339.6,90.4,339.6,87.1 M346.4,90.3v-6.9c-0.6-0.3-1.2-0.4-1.9-0.4c-2.2,0-3.3,1.6-3.3,4c0,2.2,0.7,4,3,4
			C345.1,91,345.8,90.8,346.4,90.3"/>
		<path class="st0" d="M98.4,63.2l0.8-0.2c1.1-0.2,1.6-1.2,2.2-2.7l6.3-16.9l2.7-0.5l6.4,17.4c0.7,2,1.2,2.6,2.2,2.8l0.7,0.1v1.2
			c-0.8,0-2.5-0.1-3.9-0.1s-4,0.1-4.8,0.1v-1.2l1.3-0.2c0.6,0,1.1-0.6,1-1.2c0-0.4-0.1-0.8-0.2-1.1l-1.4-4.1h-6.9l-1.3,4
			c-0.2,0.5-0.3,1-0.3,1.4c-0.1,0.5,0.3,0.9,0.8,1l1.4,0.1v1.2c-0.8,0-2.6-0.1-3.8-0.1s-2.2,0.1-3,0.1L98.4,63.2z M111.1,55
			l-2.9-8.4l-2.9,8.4H111.1z"/>
		<path class="st0" d="M120.9,63.3l1.2-0.2c0.8-0.1,1.1-0.4,1.1-2.6V45.8c0-1.7-0.1-2.1-2.2-2.5v-1c1.9-0.4,3.8-1,5.6-1.8v20
			c0,2.2,0.4,2.5,1.1,2.6l1.2,0.2v1.1c-0.8,0-2.7-0.1-4.1-0.1c-1.4,0-3.1,0.1-4,0.1L120.9,63.3z"/>
		<path class="st0" d="M131,67.3c0-1.9,1.9-3.3,3.8-3.9c-1.2-0.3-2-1.3-2.1-2.5c0-1.3,1.2-2.4,2.4-3c-2-0.8-3.3-2.7-3.3-4.9
			c0-3.1,2.7-5.5,6.5-5.5c0.9,0,1.8,0.1,2.6,0.4h5.6v1.6h-3.2c0.9,0.9,1.4,2.1,1.4,3.4c0,3.3-2.8,5.5-6.4,5.5c-0.5,0-1.1,0-1.6-0.1
			c-0.8,0.4-1.1,0.9-1.1,1.4c0,0.7,0.8,1.2,2,1.2l3.1,0.1c3.5,0.2,5.7,1.7,5.7,4.2c0,3.8-3.8,6-8.9,6C133.8,71.3,131,69.9,131,67.3
			 M143.5,66.4c0-1.7-1.7-2.3-4.7-2.4l-2.5-0.1c-1.1,0.5-2.5,1.4-2.5,2.8c0,1.8,1.5,3,4.3,3C141.2,69.7,143.5,68.5,143.5,66.4
			 M141.3,53c0-2.2-1.1-3.8-3.1-3.8c-2,0-3.1,1.7-3.1,3.8c0,2.4,1.3,3.8,3.2,3.8C140.2,56.8,141.3,55.1,141.3,53"/>
		<path class="st0" d="M148.3,56.3c0-4.9,3.2-8.8,8.1-8.8c5.1,0,7.9,3.4,7.9,8.5c0,5-3.2,8.8-8.1,8.8
			C151,64.8,148.3,61.5,148.3,56.3 M160.5,56.4c0-4.3-1.4-7.2-4.3-7.2c-2.7,0-4.2,2.7-4.2,6.8c0,4.4,1.5,7.1,4.3,7.1
			C159.2,63.2,160.5,60.5,160.5,56.4"/>
		<path class="st0" d="M167.2,63.3l1.1-0.2c0.8-0.1,1.1-0.4,1.1-2.6v-8c0-1.7-0.1-2.1-2.2-2.5v-1c1.9-0.4,3.8-0.9,5.6-1.6v2.4
			c1.3-1.3,3.1-2.1,4.9-2.2c3.9,0,5.3,2.3,5.3,5.7v7.3c0,2.3,0.4,2.5,1.1,2.6l1,0.2v1.1c-0.8,0-2.7-0.1-4-0.1s-2.8,0.1-3.7,0.1v-1.1
			l1-0.2c0.7-0.1,1.1-0.4,1.1-2.6v-6.8c0-2.4-0.6-3.7-3.2-3.7c-1.3,0.1-2.5,0.5-3.6,1.2v9.4c0,2.2,0.4,2.5,1.1,2.6l1,0.2v1.1
			c-0.8,0-2.6-0.1-4-0.1c-1.3,0-2.9,0.1-3.8,0.1L167.2,63.3z"/>
		<path class="st0" d="M195.7,69.8l1.5-0.2c0.8-0.1,1.1-0.4,1.1-2.6v-3.8c-1.2,1-2.7,1.5-4.2,1.6c-4.3,0-6.8-3.3-6.8-7.9
			c0-5.8,4.3-9.3,9.6-9.3c1.1,0,2.1,0.2,3,0.2c0.6,0,1.2-0.1,1.8-0.3V67c0,2.3,0.4,2.5,1.1,2.6l1,0.2v1.1c-0.9,0-2.5-0.1-3.8-0.1
			c-1.4,0-3.6,0.1-4.4,0.1L195.7,69.8z M198.4,62V49.7c-0.6-0.3-1.3-0.5-2-0.4c-3.1,0-5.5,2.3-5.5,7c0,3.5,1.7,6.3,4.8,6.3
			C196.6,62.6,197.5,62.4,198.4,62"/>
		<path class="st0" d="M217.7,62.6c-1.3,1.3-3.1,2.1-4.9,2.2c-3.9,0-5.3-2.3-5.3-5.7V52c0-1.7-0.1-2.1-2.2-2.5v-1
			c1.8-0.3,3.7-0.6,5.6-1.1v11.3c0,2.4,0.6,3.7,3.2,3.7c1.3-0.1,2.5-0.5,3.6-1.1V52c0-1.7-0.1-2.1-2.2-2.5v-1
			c1.9-0.3,3.7-0.6,5.6-1.1v12.8c0,1.7,0.1,2.2,2.2,2.6v1c-1.9,0.2-3.7,0.6-5.6,1L217.7,62.6z"/>
		<path class="st0" d="M225.9,63.3l1.4-0.2c0.8-0.1,1.1-0.4,1.1-2.6v-8c0-1.7-0.1-2.1-2.2-2.5v-1c1.9-0.4,3.8-0.9,5.6-1.6v13.1
			c0,2.2,0.4,2.5,1.1,2.6l1.2,0.2v1.1c-0.8,0-2.8-0.1-4.1-0.1s-3.3,0.1-4.2,0.1L225.9,63.3z M227.8,42.4c0-1.2,1-2.1,2.1-2.1
			c1.2,0,2.1,0.9,2.1,2.1c0,1.2-0.9,2.1-2.1,2.1C228.7,44.5,227.8,43.5,227.8,42.4"/>
		<path class="st0" d="M237,63.3l1.1-0.2c0.8-0.1,1.1-0.4,1.1-2.6v-8c0-1.7-0.1-2.1-2.2-2.5v-1c1.9-0.4,3.8-0.9,5.6-1.6v2.4
			c1.3-1.3,3.1-2.1,4.9-2.2c3.9,0,5.3,2.3,5.3,5.7v7.3c0,2.3,0.4,2.5,1.1,2.6l1,0.2v1.1c-0.8,0-2.7-0.1-4-0.1s-2.8,0.1-3.7,0.1v-1.1
			l1-0.2c0.7-0.1,1.1-0.4,1.1-2.6v-6.8c0-2.4-0.6-3.7-3.2-3.7c-1.3,0.1-2.5,0.5-3.6,1.2v9.4c0,2.2,0.4,2.5,1.1,2.6l1,0.2v1.1
			c-0.8,0-2.6-0.1-4-0.1c-1.3,0-2.9,0.1-3.8,0.1L237,63.3z"/>
		<path class="st0" d="M265,59c0-2.6,1.8-4.6,4.6-5.9c-1.6-1.8-2.8-3.2-2.8-5.2c0-2.9,2.8-5,6.4-5c3.3,0,5.6,1.7,5.6,4.1
			c0,2.2-1.6,4.1-5,5.7c1.3,1.5,4.8,4.9,5.8,5.9c1.1-1.2,1.8-2.7,2-4.3c0-0.5-0.3-0.9-1.1-1l-1-0.2V52c0.8,0,2.6,0.1,3.8,0.1
			s2.3-0.1,3.1-0.1v1.2l-0.8,0.1c-1.1,0.2-1.9,0.9-2.2,2c-0.6,1.6-1.4,3.1-2.5,4.5c1.9,1.9,3.5,3.3,5.5,3.6l0,1.1
			c-0.7,0.3-1.4,0.4-2.1,0.4c-2.1,0-4.2-1-5.6-2.6c-1.7,1.8-4.1,2.8-6.6,2.6C268.1,64.9,265,62.5,265,59 M277.5,61.1
			c-1.8-1.7-5.1-5-6.7-6.7c-2.2,1.2-2.9,3.9-1.7,6.1c0.8,1.5,2.4,2.4,4.1,2.3C274.8,62.8,276.4,62.2,277.5,61.1 M275.7,47.3
			c0-1.4-1.1-2.6-2.5-2.7c0,0-0.1,0-0.1,0c-1.5,0-2.8,1.1-2.8,2.6c0,0.1,0,0.1,0,0.2c0,1.5,1,2.7,2.4,4.1
			C275,50.4,275.7,48.9,275.7,47.3"/>
		<path class="st0" d="M306.1,64.4c-1.2,0-4,0-5.6,0c-1.1,0-3.4,0-4.1,0.1v-1.2l1.2-0.2c0.9-0.1,1.4-0.6,1.4-2.7V47.5
			c0-2.1-0.5-2.5-1.4-2.7l-1.2-0.2v-1.2c0.8,0,2.9,0.1,4.4,0.1c1.5,0,3.7,0,4.6-0.1v1.2l-1.5,0.2c-0.9,0.1-1.4,0.6-1.4,2.7V61
			c0,1.1,0.2,1.7,2.5,1.7h2.6c0.9,0.1,1.8-0.4,2-1.3l0.6-1.9h1.3c-0.3,1.8-0.6,4.1-0.6,5.1C309.6,64.4,307.2,64.4,306.1,64.4"/>
		<path class="st0" d="M313.2,60.6c0-3.3,2.9-5.2,7.3-5.2c0.4,0,1.2,0,1.6,0v-1.8c0-2.5-1.1-3.7-3.6-3.7c-1.3,0-2.6,0.3-3.8,0.9
			l-0.2-1.1c1.4-1.3,3.2-2.1,5.1-2.1c4,0,6,2.1,6,5.4c0,2.6-0.1,5.1-0.1,7.9c0,1.7,0.6,2.1,2.5,2.1V64c-0.9,0.5-1.9,0.8-3,0.8
			c-1.8,0-2.7-1-2.8-2.4h-0.1c-1,1.5-2.7,2.4-4.5,2.4c-2.3,0.2-4.3-1.6-4.4-3.9C313.2,60.8,313.2,60.7,313.2,60.6 M322,61.2
			c0-1.1,0-3.4,0.1-4.1c-0.3,0-0.8,0-1.1,0c-3,0-4.4,1.1-4.4,3.1c-0.1,1.3,0.9,2.4,2.2,2.4c0.1,0,0.2,0,0.3,0
			C320.1,62.5,321.2,62,322,61.2"/>
		<path class="st0" d="M329.8,63.3l1-0.2c0.8-0.1,1.1-0.4,1.1-2.6V45.8c0-1.7-0.1-2.1-2.2-2.5v-1c1.9-0.4,3.8-1,5.6-1.8v20
			c0,2.2,0.4,2.5,1.1,2.6l1,0.2v1.1c-0.8,0-2.6-0.1-3.9-0.1s-2.9,0.1-3.8,0.1L329.8,63.3z M340.8,62.6c-1.3-1.4-2.6-3.3-5.1-6.8
			l4-4.6c0.4-0.4,0.6-0.8,0.7-1.4c0-0.4-0.3-0.6-1.3-0.6V48c0.8,0,2.3,0.1,3.6,0.1c1.1,0,2.4,0,3.2-0.1v1.1
			c-1.8,0.1-3.6,1.6-4.9,3.1l-2.2,2.4c2,2.6,4.3,5.7,5.4,6.8c0.9,0.9,1.7,1.9,2.9,2v1.1c-0.6,0.3-1.3,0.4-2,0.3
			C343.4,64.7,341.9,63.9,340.8,62.6"/>
		<path class="st0" d="M347.9,56.5c0-5.3,3.3-8.9,7.8-8.9c4.4,0,6.4,3.1,6.4,6.5c0,0.4,0,0.9-0.1,1.3h-10.5c0,0.3,0,0.6,0,0.8
			c0,3.5,1.9,6.2,5.4,6.2c1.5,0,3-0.3,4.3-0.9l0.1,1c-0.6,1.1-2.9,2.4-5.6,2.4C350.7,64.8,347.9,61.6,347.9,56.5 M357.9,53.8
			c0.6,0,0.8-0.3,0.8-0.7c0-1.9-1-3.8-3.1-3.8c-2.5,0-3.7,2.3-3.9,4.5H357.9z"/>
		<path class="st0" d="M364.7,64c0-1.5,0-3-0.1-4.5h1.4c0.3,2.4,1.1,3.6,3.9,3.6c2,0,3.3-1,3.3-2.7c0-3.9-8.4-2-8.4-8.3
			c0-2.8,2.7-4.6,6.2-4.6c1.6,0,3.2,0.3,4.7,0.9c0,1.3,0,2.6,0.1,3.9h-1.4c-0.2-2.1-1.2-3.2-3.4-3.2c-1.9,0-3.1,0.8-3.1,2.3
			c0,3.6,8.5,2.2,8.5,8.2c0,3.1-2.9,5.1-6.3,5.1C368.2,64.8,366.4,64.5,364.7,64"/>
		<path class="st0" d="M379.2,63.3l1-0.2c0.8-0.1,1.1-0.4,1.1-2.6V45.8c0-1.7-0.1-2.1-2.2-2.5v-1c1.9-0.4,3.8-1,5.6-1.8v9.2
			c1.3-1.3,3.1-2.1,5-2.2c3.9,0,5.3,2.3,5.3,5.7v7.2c0,2.3,0.4,2.5,1.1,2.6l1.1,0.2v1.1c-0.8,0-2.7-0.1-4-0.1s-2.8,0.1-3.7,0.1v-1.1
			l1-0.2c0.7-0.1,1.1-0.4,1.1-2.6v-6.8c0-2.4-0.7-3.8-3.3-3.8c-1.3,0.1-2.5,0.5-3.5,1.2v9.4c0,2.2,0.4,2.5,1.1,2.6l1,0.2v1.1
			c-0.8,0-2.6-0.1-3.9-0.1c-1.4,0-2.9,0.1-3.8,0.1L379.2,63.3z"/>
		<path class="st0" d="M399.3,56.3c0-4.9,3.2-8.8,8.1-8.8c5.1,0,7.9,3.4,7.9,8.5c0,5-3.2,8.8-8.1,8.8
			C402,64.8,399.3,61.5,399.3,56.3 M411.5,56.4c0-4.3-1.4-7.2-4.3-7.2c-2.7,0-4.2,2.7-4.2,6.8c0,4.4,1.5,7.1,4.3,7.1
			C410.2,63.2,411.5,60.5,411.5,56.4"/>
		<path class="st0" d="M418.2,63.3l1.1-0.2c0.8-0.1,1.1-0.4,1.1-2.6v-8c0-1.7-0.1-2.1-2.2-2.5v-1c1.9-0.4,3.8-0.9,5.6-1.6v2.7
			c1-1.5,2.6-2.4,4.3-2.5c0.5,0,1,0.1,1.5,0.2l-0.4,3c-0.6-0.3-1.3-0.4-2-0.4c-1.2,0-2.4,0.4-3.4,1.2v9c0,2.2,0.4,2.5,1.1,2.6
			l1.5,0.2v1.1c-0.8,0-3.1-0.1-4.5-0.1s-3,0.1-3.8,0.1V63.3z"/>
		<path class="st0" d="M431,56.5c0-5.3,3.3-8.9,7.8-8.9c4.4,0,6.4,3.1,6.4,6.5c0,0.4,0,0.9-0.1,1.3h-10.5c0,0.3,0,0.6,0,0.8
			c0,3.5,1.9,6.2,5.4,6.2c1.5,0,3-0.3,4.3-0.9l0.1,1c-0.6,1.1-2.9,2.4-5.6,2.4C433.8,64.8,431,61.6,431,56.5 M441,53.8
			c0.6,0,0.8-0.3,0.8-0.7c0-1.9-1-3.8-3.1-3.8c-2.5,0-3.7,2.3-3.9,4.5H441z"/>
		<path class="st0" d="M62.5,93.8c1-1,1.2-0.8,0.3,0.3c-0.3,0.4-0.7,0.9-1.2,1.4l-1.5,1.7c-0.5,0.6-1.2,1.3-1.8,1.9
			c-0.3,0.3-0.7,0.7-1,1s-0.7,0.7-1.1,1.1c-1.7,1.6-3.4,3-5.3,4.4c-1,0.7-2,1.5-3.1,2.2l-0.8,0.5l-0.9,0.5c-0.3,0.2-0.6,0.3-0.9,0.5
			l-0.5,0.3l-0.9,0.4l-0.1,0l-0.4-0.2l-0.2-0.1c-0.1,0-0.2-0.1-0.2-0.1l-0.5-0.2c-0.3-0.2-0.6-0.3-0.9-0.5c-0.6-0.3-1.1-0.7-1.7-1
			c-1.1-0.7-2.1-1.4-3.1-2.2c-1.8-1.4-3.6-2.9-5.3-4.4c-0.4-0.4-0.8-0.7-1.1-1.1s-0.7-0.7-1-1c-0.6-0.7-1.3-1.3-1.8-2L26,95.5
			c-0.4-0.5-0.8-1-1.2-1.5c-0.9-1.1-0.7-1.2,0.3-0.3l1.3,1.3l1.7,1.5c0.6,0.5,1.3,1.1,2,1.7c0.4,0.3,0.7,0.6,1.1,0.9s0.8,0.6,1.2,1
			c1.6,1.3,3.4,2.6,5.4,4c1,0.7,2,1.3,3.1,2c0.5,0.3,1.1,0.6,1.6,1c0.3,0.2,0.6,0.3,0.8,0.5l0.4,0.2l0,0l0,0l0.4-0.2l0.8-0.5
			l0.8-0.5l0.8-0.5c1.1-0.7,2.1-1.3,3.1-2c2-1.3,3.8-2.7,5.4-4c0.4-0.3,0.8-0.6,1.2-0.9l1.1-0.9c0.7-0.6,1.4-1.2,2-1.7l1.7-1.5
			L62.5,93.8"/>
		<path class="st0" d="M11.1,71.3c1.2,2.7,2.1,4.7,2.7,6.1s0.9,2,0.8,2.1s-0.5-0.5-1.4-1.8c-1.2-1.9-2.2-3.9-3.2-5.9
			C7.8,67,5.9,61.9,4.4,56.8c-1.8-6.3-3-12.6-3.7-19.1c-0.1-0.9-0.2-1.7-0.2-2.6c0-0.4-0.1-0.9-0.1-1.3s-0.1-0.9-0.1-1.3
			c-0.1-0.9-0.1-1.8-0.2-2.7c0-0.9-0.1-1.8-0.1-2.8c0-0.7,0-1.3,0-2l0-0.6c0,0,0,0,0.1,0l0.1,0l0.1-0.1l0.3-0.1l1.2-0.5l2.7-1.1
			l5.3-2.2l11-4.6l10.5-4.3v0l0,0l0-0.1c0.1-0.4,0.1-0.8,0.2-1.2c0.2-0.8,0.4-1.5,0.8-2.3c0.3-0.7,0.7-1.4,1.2-2.1
			c0.5-0.7,1-1.3,1.6-1.9C36.1,2.5,37.5,1.6,39,1c0.8-0.3,1.6-0.6,2.4-0.7C42.2,0.1,43.1,0,43.9,0c0.8,0,1.7,0.1,2.5,0.2
			C47.2,0.4,48,0.6,48.7,1c0.8,0.3,1.5,0.7,2.2,1.1c2.7,1.8,4.7,4.6,5.4,7.8c0.1,0.4,0.2,0.8,0.2,1.2l0,0.1c0,0,0,0,0,0v0l10.5,4.4
			l11,4.6l5.3,2.2l2.7,1.1l1.2,0.5l0.3,0.1l0.1,0.1c0,0,0,0,0,0v0v0.1l0,0.6c0,0.7,0,1.3,0,2c0,0.9-0.1,1.9-0.1,2.8
			c-0.1,0.9-0.1,1.8-0.2,2.7c0,0.5-0.1,0.9-0.1,1.3c0,0.4-0.1,0.9-0.1,1.3c-0.1,0.9-0.2,1.8-0.2,2.6c-0.7,6.5-1.9,12.9-3.7,19.1
			C81.9,62,80,67,77.7,71.9c-1,2-2,4-3.2,5.9c-0.8,1.2-1.3,1.8-1.4,1.8s0.2-0.8,0.8-2.1s1.6-3.3,2.7-6c2.1-4.9,3.7-9.9,5-15
			c1.5-6.2,2.5-12.5,3-18.9c0.1-0.9,0.1-1.7,0.2-2.6c0-0.4,0.1-0.9,0.1-1.3c0-0.4,0-0.9,0-1.3c0-0.9,0.1-1.8,0.1-2.7
			c0-0.9,0-1.8,0-2.7v-0.7l0-0.1V26c0,0,0,0-0.1,0l-0.1,0l-2.5-1L77,22.8l-11.1-4.4l-12.5-5l-0.1-1l0-0.5c0-0.1,0-0.2,0-0.3l0-0.1
			c0-0.3-0.1-0.6-0.2-0.9C53,10,52.8,9.5,52.6,8.9C50.4,4.1,44.8,2,40,4.2c-1,0.5-1.9,1.1-2.7,1.9c-0.4,0.4-0.8,0.9-1.2,1.4
			c-0.3,0.5-0.6,1-0.9,1.6c-0.2,0.5-0.4,1.1-0.6,1.7c-0.1,0.3-0.1,0.6-0.2,0.9l0,0.1c0,0.1,0,0.2,0,0.3l0,0.5l-0.1,1l-12.4,5
			l-11.1,4.4l-5.3,2.1l-2.5,1l-0.1,0c0,0,0,0-0.1,0v0.1l0,0.1v0.6c0,0.9,0,1.8,0,2.7c0,0.9,0.1,1.8,0.1,2.7c0,0.4,0,0.9,0,1.3
			c0,0.4,0.1,0.9,0.1,1.3c0.1,0.9,0.1,1.7,0.2,2.6c0.5,6.4,1.5,12.7,3,18.9C7.4,61.4,9.1,66.5,11.1,71.3"/>
		<path class="st1" d="M43.3,65.2c0,0-10.6-13.6-11.6-25.4c0-0.1,0.1-0.2,0.2-0.2c0.1,0,0.2,0,0.2,0.1c1.5,3.7,6.2,14.8,11.8,14.8
			c5.6,0,10.2-11,11.8-14.8c0.1-0.1,0.2-0.2,0.3-0.1c0.1,0,0.2,0.1,0.1,0.2c-0.9,11.9-11.6,25.4-11.6,25.4l-0.3,0.4
			c-0.2,0.2-0.4,0.2-0.6,0.1c0,0-0.1,0-0.1-0.1L43.3,65.2z"/>
		<path class="st1" d="M47.7,40.5c0,2.1-1.7,3.8-3.8,3.8c-2.1,0-3.8-1.7-3.8-3.8c0-2.1,1.7-3.8,3.8-3.8c0,0,0,0,0,0
			C46,36.6,47.7,38.4,47.7,40.5"/>
		<path class="st2" d="M49.1,66.9c0,0,6.7-10.5,14.4-14.1c0.1,0,0.2,0,0.2,0.1c0,0.1,0,0.1,0,0.2c-2.1,1.9-8.7,7.7-7.4,11.4
			s10.2,4.4,13.1,4.5c0.1,0,0.2,0.1,0.2,0.2c0,0.1-0.1,0.1-0.1,0.2c-8.3,2.3-20.1-1.7-20.1-1.7l-0.3-0.1c-0.2,0-0.2-0.2-0.2-0.4
			c0,0,0,0,0-0.1L49.1,66.9z"/>
		<path class="st2" d="M67,63.9c-1.4,0.5-3-0.2-3.5-1.7c-0.5-1.4,0.2-3,1.7-3.5c1.4-0.5,3,0.2,3.5,1.7c0,0,0,0,0,0
			C69.1,61.8,68.4,63.4,67,63.9"/>
		<path class="st3" d="M38.7,66.9c0,0-6.7-10.5-14.4-14.1c-0.1,0-0.2,0-0.2,0.1c0,0.1,0,0.1,0,0.2c2.1,1.9,8.7,7.7,7.4,11.4
			s-10.2,4.4-13.1,4.5c-0.1,0-0.2,0.1-0.2,0.2c0,0.1,0.1,0.1,0.1,0.2c8.3,2.3,20.1-1.7,20.1-1.7l0.3-0.1c0.2,0,0.2-0.2,0.2-0.4
			c0,0,0,0,0-0.1L38.7,66.9z"/>
		<path class="st3" d="M20.8,63.9c1.4,0.5,3-0.2,3.5-1.7c0.5-1.4-0.2-3-1.7-3.5c-1.4-0.5-3,0.2-3.5,1.7c0,0,0,0,0,0
			C18.6,61.8,19.4,63.4,20.8,63.9"/>
		<path class="st0" d="M64.4,89.7c-2.4-1-4.9-1.6-7.5-1.8c-1.3-0.1-2.6,0-3.9,0.2c-1.3,0.2-2.6,0.6-3.8,1.1
			c-1.2,0.5-2.4,1.2-3.4,2.1c-0.5,0.4-1,0.9-1.5,1.4c-0.2,0.2-0.3,0.3-0.5,0.5c-0.2-0.2-0.3-0.4-0.5-0.5c-0.5-0.5-1-0.9-1.5-1.4
			c-1-0.8-2.2-1.5-3.4-2.1c-1.2-0.5-2.5-0.9-3.8-1.1c-1.3-0.2-2.6-0.3-3.9-0.2c-2.6,0.2-5.1,0.8-7.5,1.8c-2,0.8-3.9,1.8-5.6,3
			c0,0,0,0.1,0,0.1c0,0,0.1,0,0.1,0c1.9-0.9,3.9-1.6,5.9-2.2c0.6-0.2,1.2-0.3,1.8-0.5s1.2-0.3,1.8-0.4c1.2-0.2,2.4-0.3,3.6-0.3
			c2.4,0,4.8,0.5,6.9,1.5c0.5,0.3,1,0.5,1.5,0.8c0.5,0.3,1,0.7,1.4,1c0.5,0.4,0.9,0.8,1.3,1.2c0.2,0.2,0.4,0.4,0.6,0.7
			c0.1,0.1,0.2,0.2,0.3,0.3s0.2,0.2,0.2,0.3l0.8,1.2c0,0,0.1,0,0.1,0c0,0,0,0,0,0l0.8-1.2c0-0.1,0.1-0.2,0.2-0.3
			c0.1-0.1,0.2-0.2,0.3-0.3c0.2-0.2,0.4-0.4,0.6-0.7c0.4-0.4,0.8-0.8,1.3-1.2c0.5-0.4,0.9-0.7,1.4-1c0.5-0.3,1-0.6,1.5-0.8
			c2.2-1,4.5-1.5,6.9-1.5c1.2,0,2.4,0.1,3.6,0.3c0.6,0.1,1.2,0.2,1.8,0.4s1.2,0.3,1.8,0.5c2,0.6,4,1.4,6,2.3c0,0,0.1,0,0.1,0
			c0,0,0-0.1,0-0.1C68.4,91.6,66.4,90.6,64.4,89.7"/>
		<path class="st0" d="M42.7,11.1h2.3v4.2h3.7v2.3h-3.7v11.1h-2.3V17.6H39v-2.3h3.7C42.7,15.3,42.7,11.1,42.7,11.1z"/>
		<path class="st0" d="M71.2,91.4c-0.3-1.7-0.6-3.5-0.9-5.2l-0.8-5.2l0.2,0.4c-2-1.2-4.2-2.1-6.4-2.8c-2.2-0.7-4.5-1-6.8-1
			c-1.1,0-2.3,0.1-3.4,0.4c-1.1,0.2-2.2,0.6-3.2,1.1l-0.4,0.2l-0.4,0.2c-0.2,0.1-0.5,0.3-0.7,0.4c-0.5,0.3-0.9,0.6-1.4,1
			c-0.9,0.7-1.7,1.5-2.4,2.4l-0.9,1L43,83.1c-0.1-0.1-0.1-0.2-0.2-0.3s-0.2-0.2-0.3-0.3c-0.2-0.2-0.4-0.4-0.6-0.6
			c-0.4-0.4-0.8-0.8-1.3-1.1c-0.9-0.7-1.8-1.3-2.9-1.8c-1-0.5-2.1-0.9-3.2-1.1c-1.1-0.3-2.2-0.4-3.4-0.4c-2.3,0-4.6,0.4-6.8,1.1
			c-2.2,0.7-4.4,1.7-6.5,2.8l0.3-0.4l-0.8,5.2c-0.3,1.7-0.6,3.4-0.9,5.2c0.1-1.7,0.2-3.5,0.3-5.2l0.3-5.2l0-0.2l0.2-0.2
			c2-1.4,4.2-2.5,6.5-3.4c2.3-0.9,4.8-1.4,7.3-1.5c3.9-0.1,7.6,1.1,10.7,3.5c0.5,0.4,1,0.8,1.4,1.3c0.2,0.2,0.4,0.5,0.7,0.7
			c0.1,0.1,0.2,0.2,0.3,0.4s0.2,0.2,0.3,0.4l-1.6-0.1c0.8-1,1.7-1.8,2.7-2.6c0.5-0.4,1-0.8,1.6-1.1c0.3-0.2,0.6-0.3,0.8-0.5l0.4-0.2
			l0.4-0.2c0.3-0.1,0.6-0.3,0.9-0.4l0.9-0.3c0.6-0.2,1.2-0.3,1.8-0.5c1.2-0.2,2.5-0.4,3.8-0.3c2.5,0.1,5,0.5,7.3,1.4
			c1.2,0.4,2.3,0.9,3.4,1.5c1.1,0.6,2.2,1.2,3.2,1.9l0.2,0.1l0,0.2l0.4,5.3C71,87.8,71.1,89.6,71.2,91.4"/>
	</g>
</g>
</svg>
